<?xml version="1.0" encoding="UTF-8" standalone="no"?>
<svg
   xmlns:dc="http://purl.org/dc/elements/1.1/"
   xmlns:cc="http://creativecommons.org/ns#"
   xmlns:rdf="http://www.w3.org/1999/02/22-rdf-syntax-ns#"
   xmlns:svg="http://www.w3.org/2000/svg"
   xmlns="http://www.w3.org/2000/svg"
   xmlns:sodipodi="http://sodipodi.sourceforge.net/DTD/sodipodi-0.dtd"
   xmlns:inkscape="http://www.inkscape.org/namespaces/inkscape"
   version="1.1"
   width="96"
   height="96"
   viewBox="0 0 96 96"
   id="svg3763"
   sodipodi:docname="bus-clock.svg"
   inkscape:version="0.92.4 (f8dce91, 2019-08-02)"
   inkscape:export-filename="/home/piotr/Downloads/bus-clock.png"
   inkscape:export-xdpi="522.89362"
   inkscape:export-ydpi="522.89362">
  <metadata
     id="metadata3769">
    <rdf:RDF>
      <cc:Work
         rdf:about="">
        <dc:format>image/svg+xml</dc:format>
        <dc:type
           rdf:resource="http://purl.org/dc/dcmitype/StillImage" />
        <dc:title></dc:title>
      </cc:Work>
    </rdf:RDF>
  </metadata>
  <defs
     id="defs3767" />
  <sodipodi:namedview
     pagecolor="#ffffff"
     bordercolor="#666666"
     borderopacity="1"
     objecttolerance="10"
     gridtolerance="10"
     guidetolerance="10"
     inkscape:pageopacity="0"
     inkscape:pageshadow="2"
     inkscape:window-width="1920"
     inkscape:window-height="1043"
     id="namedview3765"
     showgrid="false"
     inkscape:zoom="5.6568543"
     inkscape:cx="53.103463"
     inkscape:cy="62.138006"
     inkscape:window-x="0"
     inkscape:window-y="440"
     inkscape:window-maximized="1"
     inkscape:current-layer="svg3763">
    <inkscape:grid
       type="xygrid"
       id="grid3771" />
  </sodipodi:namedview>
  <rect
     id="rect3773"
     width="94"
     height="94"
     x="1"
     y="1"
     style="opacity:1;fill:#e0e0e0;fill-opacity:1"
     rx="20.125"
     ry="20.125" />
  <path
     d="m 64.57627,23.118653 v 13.566381 l 9.129375,5.394631 -2.394065,3.894351 -11.523444,-6.894914 V 23.118653 H 64.57627 M 62.980224,51.84746 c 4.341242,0 8.107909,-1.596042 11.172316,-4.692371 3.192091,-3.096328 4.788133,-6.831073 4.788133,-11.268078 0,-4.341243 -1.596042,-8.107906 -4.788133,-11.172312 -3.064407,-3.192091 -6.831074,-4.788137 -11.172316,-4.788137 -4.437005,0 -8.17175,1.596046 -11.268075,4.788137 -3.096328,3.064406 -4.692374,6.831069 -4.692374,11.172312 0,4.437005 1.596046,8.17175 4.692374,11.268078 3.096325,3.096329 6.83107,4.692371 11.268075,4.692371 M 55,71 c 1.40452,0 2.553671,-0.510735 3.447456,-1.468361 0.893786,-0.957626 1.34068,-2.074858 1.34068,-3.319772 0,-1.34068 -0.446894,-2.457909 -1.34068,-3.415539 C 57.553671,61.838702 56.40452,61.42373 55,61.42373 c -1.404521,0 -2.553672,0.414972 -3.447457,1.372598 -0.893786,0.95763 -1.340677,2.074859 -1.340677,3.415539 0,1.244914 0.446891,2.362146 1.340677,3.319772 C 52.446328,70.489265 53.595479,71 55,71 M 21.483057,51.84746 h 25.88785 C 42.870058,47.506217 40.635596,42.271193 40.635596,35.887011 H 21.483057 V 51.84746 M 26.271192,71 c 1.404519,0 2.553672,-0.510735 3.447457,-1.468361 0.893785,-0.957626 1.340677,-2.074858 1.340677,-3.319772 0,-1.34068 -0.446892,-2.457909 -1.340677,-3.415539 -0.893785,-0.957626 -2.042938,-1.372598 -3.447457,-1.372598 -1.40452,0 -2.553672,0.414972 -3.447458,1.372598 -0.893785,0.95763 -1.340677,2.074859 -1.340677,3.415539 0,1.244914 0.446892,2.362146 1.340677,3.319772 C 23.71752,70.489265 24.866672,71 26.271192,71 M 62.980224,13.542383 c 6.128813,0 11.427681,2.138699 15.800846,6.543786 4.405083,4.37316 6.543786,9.672032 6.543786,15.800842 0,5.65 -1.787571,10.501978 -5.490398,14.651695 -3.6709,4.117795 -8.23559,6.607626 -13.662143,7.405649 v 9.863554 c 0,2.681356 -1.053388,5.043502 -3.192091,7.022598 v 5.745763 c 0,0.86186 -0.351117,1.59605 -0.957626,2.26638 -0.63842,0.63842 -1.340676,0.92571 -2.234462,0.92571 H 56.596045 C 55.734182,83.76836 55,83.48107 54.329661,82.84265 53.691242,82.17232 53.403954,81.43813 53.403954,80.57627 V 77.384179 H 27.867237 v 3.192091 c 0,0.86186 -0.287288,1.59605 -0.925706,2.26638 -0.670339,0.63842 -1.40452,0.92571 -2.266384,0.92571 h -3.19209 c -0.893785,0 -1.596045,-0.28729 -2.234463,-0.92571 -0.606497,-0.67033 -0.957627,-1.40452 -0.957627,-2.26638 v -5.745763 c -2.1387,-1.979096 -3.19209,-4.341242 -3.19209,-7.022598 V 35.887011 c 0,-5.043503 2.1387,-8.459038 6.543784,-10.214686 4.373164,-1.723731 10.725422,-2.553672 18.992935,-2.553672 0.414973,0 1.053389,0 1.947174,0 0.893785,0 1.532205,0.09576 1.947174,0.09576 4.500849,-6.479939 10.629662,-9.67203 18.45028,-9.67203 z"
     id="path3761"
     inkscape:connector-curvature="0"
     style="fill:#5c6bc0;fill-opacity:1;stroke:none;stroke-width:3.1920898" />
</svg>
