<?xml version="1.0" encoding="UTF-8" standalone="no"?>
<svg
   version="1.1"
   width="96"
   height="96"
   viewBox="0 0 96 96"
   id="svg3763"
   sodipodi:docname="bus-clock.svg"
   inkscape:version="1.2.1 (9c6d41e, 2022-07-14)"
   inkscape:export-filename="../images/icon.png"
   inkscape:export-xdpi="320"
   inkscape:export-ydpi="320"
   xmlns:inkscape="http://www.inkscape.org/namespaces/inkscape"
   xmlns:sodipodi="http://sodipodi.sourceforge.net/DTD/sodipodi-0.dtd"
   xmlns="http://www.w3.org/2000/svg"
   xmlns:svg="http://www.w3.org/2000/svg"
   xmlns:rdf="http://www.w3.org/1999/02/22-rdf-syntax-ns#"
   xmlns:cc="http://creativecommons.org/ns#"
   xmlns:dc="http://purl.org/dc/elements/1.1/">
  <metadata
     id="metadata3769">
    <rdf:RDF>
      <cc:Work
         rdf:about="">
        <dc:format>image/svg+xml</dc:format>
        <dc:type
           rdf:resource="http://purl.org/dc/dcmitype/StillImage" />
        <dc:title />
      </cc:Work>
    </rdf:RDF>
  </metadata>
  <defs
     id="defs3767" />
  <sodipodi:namedview
     pagecolor="#ffffff"
     bordercolor="#666666"
     borderopacity="1"
     objecttolerance="10"
     gridtolerance="10"
     guidetolerance="10"
     inkscape:pageopacity="0"
     inkscape:pageshadow="2"
     inkscape:window-width="1765"
     inkscape:window-height="967"
     id="namedview3765"
     showgrid="false"
     inkscape:zoom="5.696872"
     inkscape:cx="15.271538"
     inkscape:cy="39.75866"
     inkscape:window-x="0"
     inkscape:window-y="0"
     inkscape:window-maximized="0"
     inkscape:current-layer="svg3763"
     inkscape:showpageshadow="2"
     inkscape:pagecheckerboard="0"
     inkscape:deskcolor="#d1d1d1">
    <inkscape:grid
       type="xygrid"
       id="grid3771" />
  </sodipodi:namedview>
  <path
     d="m 59.04692,32.948609 v 8.344217 l 5.615167,3.318053 -1.472508,2.395282 -7.087676,-4.240826 v -9.816726 h 2.945017 m -0.981673,17.670107 c 2.670149,0 4.986898,-0.981671 6.87171,-2.886117 1.963346,-1.904446 2.945017,-4.20156 2.945017,-6.93061 0,-2.67015 -0.981671,-4.986896 -2.945017,-6.871707 -1.884812,-1.963346 -4.201561,-2.945019 -6.87171,-2.945019 -2.72905,0 -5.026164,0.981673 -6.930608,2.945019 -1.904446,1.884811 -2.886119,4.201557 -2.886119,6.871707 0,2.72905 0.981673,5.026164 2.886119,6.93061 1.904444,1.904446 4.201558,2.886117 6.930608,2.886117 m -4.908363,11.780073 c 0.863872,0 1.570676,-0.314136 2.120412,-0.903139 0.549737,-0.589003 0.824607,-1.276174 0.824607,-2.041878 0,-0.824607 -0.27487,-1.511776 -0.824607,-2.100781 -0.549736,-0.589003 -1.25654,-0.844239 -2.120412,-0.844239 -0.863873,0 -1.570677,0.255236 -2.120413,0.844239 -0.549737,0.589005 -0.824605,1.276174 -0.824605,2.100781 0,0.765704 0.274868,1.452875 0.824605,2.041878 0.549736,0.589003 1.25654,0.903139 2.120413,0.903139 M 32.541758,50.618716 H 48.464489 C 45.696171,47.948566 44.32183,44.728681 44.32183,40.801989 H 32.541758 v 9.816727 m 2.945018,11.780073 c 0.863871,0 1.570676,-0.314136 2.120413,-0.903139 0.549736,-0.589003 0.824604,-1.276174 0.824604,-2.041878 0,-0.824607 -0.274868,-1.511776 -0.824604,-2.100781 -0.549737,-0.589003 -1.256542,-0.844239 -2.120413,-0.844239 -0.863873,0 -1.570677,0.255236 -2.120414,0.844239 -0.549736,0.589005 -0.824604,1.276174 -0.824604,2.100781 0,0.765704 0.274868,1.452875 0.824604,2.041878 0.549737,0.589003 1.256541,0.903139 2.120414,0.903139 M 58.065247,27.058572 c 3.769623,0 7.028776,1.315441 9.71856,4.024859 2.709416,2.689782 4.024859,5.948937 4.024859,9.718558 0,3.475122 -1.099473,6.459408 -3.376956,9.011757 -2.257845,2.532715 -5.06543,4.064125 -8.403117,4.554962 v 6.066735 c 0,1.64921 -0.647903,3.102086 -1.963346,4.31936 v 3.534022 c 0,0.530101 -0.21596,0.981676 -0.589003,1.393973 -0.39267,0.392671 -0.824604,0.569373 -1.374341,0.569373 h -1.963346 c -0.530103,0 -0.981673,-0.176702 -1.393976,-0.569373 -0.39267,-0.412297 -0.569371,-0.863872 -0.569371,-1.393973 V 66.325479 H 36.468448 v 1.963346 c 0,0.530101 -0.176701,0.981676 -0.56937,1.393973 -0.412302,0.392671 -0.863872,0.569373 -1.393975,0.569373 h -1.963345 c -0.549737,0 -0.981673,-0.176702 -1.374342,-0.569373 -0.373036,-0.412297 -0.589004,-0.863872 -0.589004,-1.393973 v -3.534022 c -1.315441,-1.217274 -1.963345,-2.67015 -1.963345,-4.31936 V 40.801989 c 0,-3.102086 1.315441,-5.202865 4.024857,-6.282704 2.689784,-1.060208 6.596841,-1.570676 11.681906,-1.570676 0.255235,0 0.647903,0 1.19764,0 0.549737,0 0.942407,0.0589 1.19764,0.0589 2.768319,-3.985589 6.537942,-5.948935 11.348137,-5.948935 z"
     id="path3761"
     inkscape:connector-curvature="0"
     style="fill:#5c6bc0;fill-opacity:1;stroke:none;stroke-width:1.96335" />
</svg>
